<svg width="886" height="231" viewBox="0 0 886 231" fill="none" xmlns="http://www.w3.org/2000/svg">
<path d="M18 208H88V191H33.75V119V40H88V23H18V208Z" fill="#343A40" fill-opacity="0.78"/>
<rect x="30.9151" y="47.4151" width="200.2" height="55" rx="27.5" transform="rotate(30 30.9151 47.4151)" stroke="#10D876" stroke-width="5"/>
<rect x="40.9151" y="27.4151" width="200.2" height="55" rx="27.5" transform="rotate(30 40.9151 27.4151)" stroke="#0055FF" stroke-width="5"/>
<path d="M178 23H108V40H162.25V112V191H108V208H178V23Z" fill="#343A40" fill-opacity="0.78"/>
<path d="M288.197 98.568H327.173V111H272.741V37.08H288.197V98.568ZM346.167 46.936C342.956 46.936 340.567 46.264 338.999 44.92C337.431 43.5013 336.647 41.448 336.647 38.76C336.647 35.9973 337.431 33.944 338.999 32.6C340.567 31.1813 342.956 30.472 346.167 30.472C349.378 30.472 351.767 31.1813 353.335 32.6C354.903 33.944 355.687 35.9973 355.687 38.76C355.687 41.448 354.903 43.5013 353.335 44.92C351.767 46.264 349.378 46.936 346.167 46.936ZM353.783 55V111H338.439V55H353.783ZM370.048 111V55H383.824L384.72 71.8L382.816 70.008C383.712 66.3493 385.131 63.3253 387.072 60.936C389.014 58.5467 391.366 56.792 394.128 55.672C396.966 54.4773 400.064 53.88 403.424 53.88C407.307 53.88 410.742 54.6267 413.728 56.12C416.79 57.6133 419.179 59.8907 420.896 62.952C422.688 65.9387 423.584 69.7093 423.584 74.264V111H408.24V78.632C408.24 73.8533 407.307 70.568 405.44 68.776C403.574 66.9093 401.147 65.976 398.16 65.976C396.07 65.976 394.016 66.4987 392 67.544C390.059 68.5147 388.454 70.12 387.184 72.36C385.99 74.6 385.392 77.5867 385.392 81.32V111H370.048ZM496.4 55L470.528 81.992L467.504 83.448L450.704 101.48L450.48 85.128L478.928 55H496.4ZM454.736 30.472V111H439.392V30.472H454.736ZM472.656 72.808L497.744 111H480.384L462.128 81.768L472.656 72.808ZM535.327 35.96C542.047 35.96 547.946 37.1173 553.023 39.432C558.1 41.7467 562.431 45.1813 566.015 49.736L557.391 59.704C554.33 55.8213 550.97 52.984 547.311 51.192C543.727 49.3253 539.546 48.392 534.767 48.392C531.631 48.392 529.018 48.8027 526.927 49.624C524.911 50.4453 523.418 51.528 522.447 52.872C521.551 54.216 521.103 55.7093 521.103 57.352C521.103 59.368 521.887 61.0853 523.455 62.504C525.023 63.848 527.711 64.968 531.519 65.864L545.295 69C552.612 70.6427 557.839 73.1067 560.975 76.392C564.186 79.6027 565.791 83.784 565.791 88.936C565.791 93.7893 564.522 97.9707 561.983 101.48C559.444 104.915 555.898 107.565 551.343 109.432C546.788 111.224 541.562 112.12 535.663 112.12C530.511 112.12 525.77 111.523 521.439 110.328C517.183 109.059 513.375 107.341 510.015 105.176C506.655 103.011 503.855 100.509 501.615 97.672L510.351 87.256C512.068 89.6453 514.196 91.7733 516.735 93.64C519.274 95.5067 522.148 97 525.359 98.12C528.644 99.1653 532.079 99.688 535.663 99.688C538.724 99.688 541.3 99.352 543.391 98.68C545.556 97.9333 547.162 96.9253 548.207 95.656C549.327 94.312 549.887 92.7067 549.887 90.84C549.887 88.8987 549.215 87.256 547.871 85.912C546.602 84.4933 544.212 83.4107 540.703 82.664L525.695 79.304C521.364 78.2587 517.631 76.9147 514.495 75.272C511.434 73.5547 509.082 71.3893 507.439 68.776C505.871 66.088 505.087 62.9147 505.087 59.256C505.087 54.8507 506.282 50.8933 508.671 47.384C511.06 43.8747 514.495 41.112 518.975 39.096C523.53 37.0053 528.98 35.96 535.327 35.96ZM578.517 134.52V55H592.293L593.301 72.808L591.397 70.792C592.069 67.5067 593.301 64.5947 595.093 62.056C596.96 59.5173 599.312 57.5387 602.149 56.12C604.986 54.6267 608.16 53.88 611.669 53.88C616.224 53.88 620.293 55.0373 623.877 57.352C627.461 59.6667 630.261 62.9893 632.277 67.32C634.368 71.576 635.413 76.7653 635.413 82.888C635.413 89.0107 634.368 94.2747 632.277 98.68C630.186 103.011 627.312 106.333 623.653 108.648C620.069 110.963 615.962 112.12 611.333 112.12C606.405 112.12 602.298 110.739 599.013 107.976C595.802 105.213 593.6 101.741 592.405 97.56L593.861 95.208V134.52H578.517ZM606.853 100.36C610.96 100.36 614.17 98.904 616.485 95.992C618.874 93.0053 620.069 88.6747 620.069 83C620.069 77.3253 618.912 73.032 616.597 70.12C614.357 67.1333 611.184 65.64 607.077 65.64C604.464 65.64 602.149 66.3493 600.133 67.768C598.192 69.112 596.661 71.0907 595.541 73.704C594.421 76.2427 593.861 79.3413 593.861 83C593.861 86.584 594.384 89.6827 595.429 92.296C596.474 94.9093 597.968 96.9253 599.909 98.344C601.925 99.688 604.24 100.36 606.853 100.36ZM648.736 111V30.472H664.08V64.52C665.872 60.936 668.336 58.2853 671.472 56.568C674.608 54.776 678.155 53.88 682.112 53.88C685.995 53.88 689.429 54.6267 692.416 56.12C695.477 57.6133 697.867 59.8907 699.584 62.952C701.376 65.9387 702.272 69.7093 702.272 74.264V111H686.928V78.744C686.928 73.8907 685.995 70.568 684.128 68.776C682.261 66.9093 679.872 65.976 676.96 65.976C674.795 65.976 672.704 66.4987 670.688 67.544C668.747 68.5147 667.141 70.1573 665.872 72.472C664.677 74.712 664.08 77.6987 664.08 81.432V111H648.736ZM744.064 112.12C738.165 112.12 733.013 110.963 728.608 108.648C724.277 106.333 720.917 103.011 718.528 98.68C716.138 94.3493 714.944 89.1227 714.944 83C714.944 76.8773 716.138 71.6507 718.528 67.32C720.917 62.9893 724.24 59.6667 728.496 57.352C732.826 55.0373 737.754 53.88 743.28 53.88C748.954 53.88 753.77 55.0373 757.728 57.352C761.685 59.592 764.709 62.6907 766.8 66.648C768.89 70.5307 769.936 74.9733 769.936 79.976C769.936 81.4693 769.898 82.888 769.824 84.232C769.749 85.576 769.637 86.7707 769.488 87.816H724.8V77.176H762.768L755.376 79.864C755.376 75.16 754.293 71.5387 752.128 69C750.037 66.4613 747.05 65.192 743.168 65.192C740.33 65.192 737.866 65.864 735.776 67.208C733.76 68.552 732.229 70.568 731.184 73.256C730.138 75.8693 729.616 79.192 729.616 83.224C729.616 87.1813 730.176 90.4667 731.296 93.08C732.49 95.6187 734.133 97.5227 736.224 98.792C738.389 100.061 740.965 100.696 743.952 100.696C747.237 100.696 749.888 100.061 751.904 98.792C753.92 97.5227 755.488 95.768 756.608 93.528L768.816 98.232C767.621 101.144 765.792 103.645 763.328 105.736C760.938 107.827 758.064 109.432 754.704 110.552C751.418 111.597 747.872 112.12 744.064 112.12ZM782.939 111V55H796.267L797.275 65.976C798.768 62.0933 800.934 59.1067 803.771 57.016C806.683 54.9253 810.304 53.88 814.635 53.88C815.904 53.88 817.062 53.992 818.107 54.216C819.152 54.44 820.011 54.7387 820.683 55.112L818.891 67.992C818.144 67.6933 817.211 67.4693 816.091 67.32C815.046 67.1707 813.664 67.096 811.947 67.096C809.707 67.096 807.542 67.656 805.451 68.776C803.36 69.8213 801.643 71.464 800.299 73.704C798.955 75.8693 798.283 78.632 798.283 81.992V111H782.939ZM855.079 112.12C849.181 112.12 844.029 110.963 839.623 108.648C835.293 106.333 831.933 103.011 829.543 98.68C827.154 94.3493 825.959 89.1227 825.959 83C825.959 76.8773 827.154 71.6507 829.543 67.32C831.933 62.9893 835.255 59.6667 839.511 57.352C843.842 55.0373 848.77 53.88 854.295 53.88C859.97 53.88 864.786 55.0373 868.743 57.352C872.701 59.592 875.725 62.6907 877.815 66.648C879.906 70.5307 880.951 74.9733 880.951 79.976C880.951 81.4693 880.914 82.888 880.839 84.232C880.765 85.576 880.653 86.7707 880.503 87.816H835.815V77.176H873.783L866.391 79.864C866.391 75.16 865.309 71.5387 863.143 69C861.053 66.4613 858.066 65.192 854.183 65.192C851.346 65.192 848.882 65.864 846.791 67.208C844.775 68.552 843.245 70.568 842.199 73.256C841.154 75.8693 840.631 79.192 840.631 83.224C840.631 87.1813 841.191 90.4667 842.311 93.08C843.506 95.6187 845.149 97.5227 847.239 98.792C849.405 100.061 851.981 100.696 854.967 100.696C858.253 100.696 860.903 100.061 862.919 98.792C864.935 97.5227 866.503 95.768 867.623 93.528L879.831 98.232C878.637 101.144 876.807 103.645 874.343 105.736C871.954 107.827 869.079 109.432 865.719 110.552C862.434 111.597 858.887 112.12 855.079 112.12Z" fill="#4E4E4E"/>
<path d="M276.16 201.75H302.62V207H270.56V160.8H276.16V201.75ZM330.036 160.1C334.096 160.1 337.596 160.94 340.536 162.62C343.476 164.253 345.926 166.68 347.886 169.9L343.196 173.54C341.469 170.553 339.509 168.453 337.316 167.24C335.169 165.98 332.556 165.35 329.476 165.35C327.003 165.35 324.949 165.7 323.316 166.4C321.729 167.1 320.563 168.033 319.816 169.2C319.069 170.32 318.696 171.603 318.696 173.05C318.696 174.683 319.209 176.13 320.236 177.39C321.263 178.603 323.316 179.56 326.396 180.26L336.406 182.5C340.839 183.48 343.919 184.973 345.646 186.98C347.419 188.94 348.306 191.39 348.306 194.33C348.306 196.943 347.559 199.277 346.066 201.33C344.619 203.337 342.566 204.9 339.906 206.02C337.246 207.14 334.119 207.7 330.526 207.7C327.166 207.7 324.203 207.257 321.636 206.37C319.116 205.437 316.946 204.2 315.126 202.66C313.306 201.12 311.813 199.393 310.646 197.48L315.546 193.49C316.433 195.263 317.576 196.827 318.976 198.18C320.376 199.533 322.056 200.583 324.016 201.33C326.023 202.077 328.309 202.45 330.876 202.45C333.256 202.45 335.309 202.17 337.036 201.61C338.809 201.003 340.163 200.14 341.096 199.02C342.029 197.853 342.496 196.453 342.496 194.82C342.496 193.327 342.006 191.997 341.026 190.83C340.046 189.617 338.203 188.707 335.496 188.1L324.646 185.65C321.799 184.997 319.489 184.11 317.716 182.99C315.989 181.823 314.729 180.47 313.936 178.93C313.189 177.343 312.816 175.64 312.816 173.82C312.816 171.347 313.493 169.083 314.846 167.03C316.246 164.93 318.229 163.25 320.796 161.99C323.409 160.73 326.489 160.1 330.036 160.1ZM399.1 160.8V207H393.5V160.8H399.1ZM368.44 160.8V207H362.84V160.8H368.44ZM396.09 180.96V186.21H365.78V180.96H396.09Z" fill="#4E4E4E"/>
<rect x="238" width="9" height="231" rx="4.5" fill="#585858"/>
</svg>
